<svg width="333" height="289" viewBox="0 0 333 289" fill="none" xmlns="http://www.w3.org/2000/svg">
<path opacity="0.7" d="M44.5541 222.823C44.5541 222.823 76.8741 263.783 132.154 265.463C187.434 267.143 236.794 232.663 277.594 205.863C318.394 178.983 331.754 134.103 311.354 97.0634C291.034 60.0234 254.074 72.6634 209.674 46.6634C165.274 20.5834 157.434 6.90342 105.994 9.22342C54.5541 11.5434 11.9941 66.5034 13.9141 128.023C15.7541 189.623 44.5541 222.823 44.5541 222.823Z" fill="white"/>
<path d="M54.5245 20.2636C54.4445 20.2636 55.0845 17.3036 55.1645 17.0636C55.8845 14.9036 58.4445 11.2236 60.9245 11.2236C62.7645 11.2236 63.9645 12.9036 63.8045 14.5836C63.6445 16.3436 62.0445 17.8636 60.6045 18.7436C58.9245 19.7836 54.5245 20.2636 54.5245 20.2636Z" fill="#67A948"/>
<path d="M49.7557 0.183122C52.1557 1.06312 53.2757 5.38313 53.1957 7.62313C53.1957 7.78313 52.7157 10.8231 52.7157 10.8231C52.7157 10.8231 52.7157 10.8231 52.6357 10.8231C52.7957 11.5431 53.0357 12.2631 53.1957 13.0631C53.5157 14.5831 53.9157 16.2631 54.2357 18.1831C54.5557 20.0231 54.7957 22.1031 54.8757 24.2631C54.9557 26.4231 54.9557 28.7431 54.6357 31.1431V31.2231C54.9557 30.5831 55.8357 28.7431 55.9957 28.5831C57.1957 26.7431 60.7157 23.7831 63.1157 24.5031C64.8757 24.9831 65.5957 26.9031 64.9557 28.5031C64.3157 30.1831 62.3957 31.2231 60.7957 31.6231C58.9557 32.1031 54.9557 31.5431 54.6357 31.4631C54.3157 33.7031 53.7557 36.0231 53.1157 38.3431C52.7157 39.6231 52.3157 40.9832 51.9157 42.2632C52.2357 41.7032 52.4757 41.2231 52.4757 41.1432C53.6757 39.3031 57.1957 36.3431 59.5957 37.0631C61.3557 37.5431 62.0757 39.4632 61.4357 41.0632C60.7957 42.7432 58.8757 43.7832 57.2757 44.1832C55.6757 44.6632 52.1557 44.1832 51.2757 44.1032C51.1157 44.5832 50.9557 45.1432 50.7957 45.6232C49.9957 48.0232 49.1157 50.4232 48.3957 52.7432C48.1557 53.5432 47.9157 54.4232 47.6757 55.2232C47.9157 54.7432 48.1557 54.2632 48.1557 54.2632C49.3557 52.4232 52.8757 49.4632 55.2757 50.1832C57.0357 50.6632 57.7557 52.5832 57.1157 54.1832C56.4757 55.8632 54.5557 56.9032 52.9557 57.3032C51.4357 57.7832 48.2357 57.3832 47.1157 57.2232C46.8757 58.1032 46.7157 58.9032 46.5557 59.7832C46.4757 60.3432 46.3157 60.9032 46.2357 61.4632C46.1557 62.0232 46.0757 62.5832 45.9957 63.1432C45.9157 64.2632 45.7557 65.3832 45.6757 66.4232C45.5957 67.1432 45.5957 67.8632 45.5157 68.5832C45.7557 67.7832 46.3157 66.1032 46.3957 66.0232C47.0357 64.6632 48.5557 62.7432 50.2357 61.6232C50.3157 61.3832 50.3957 61.2232 50.5557 61.0632C51.5157 59.6232 53.5157 59.2232 54.9557 60.3432C56.8757 61.9432 56.3957 66.5032 55.5157 68.5832C55.4357 68.7432 54.7957 69.9432 54.3157 70.7432C54.6357 70.3432 54.9557 69.9432 55.3557 69.4632C56.0757 68.5832 56.7957 67.7832 57.5157 66.9032C57.9157 66.5032 58.3157 66.0232 58.7157 65.6232C59.1157 65.2232 59.5957 64.7432 59.9957 64.3432C61.0357 63.3832 62.0757 62.4232 63.1957 61.5432C62.4757 60.9032 59.8357 58.7432 59.1157 57.2232C58.3957 55.7032 57.8357 53.6232 58.6357 52.0232C59.4357 50.5032 61.3557 49.7032 62.8757 50.6632C65.0357 52.0232 65.1957 56.5032 64.6357 58.6632C64.6357 58.8232 63.9957 60.3432 63.6757 61.1432C64.3157 60.5832 64.9557 60.0232 65.6757 59.5432C67.6757 58.0232 69.6757 56.5032 71.7557 55.0632C72.3957 54.5832 73.0357 54.1032 73.5957 53.7032C73.3557 53.4632 70.1557 50.9032 69.3557 49.2232C68.6357 47.7032 68.0757 45.6232 68.8757 44.0232C69.6757 42.5032 71.5957 41.7032 73.1157 42.6632C75.2757 44.0232 75.4357 48.5032 74.8757 50.6632C74.7957 50.8232 73.9957 52.9832 73.7557 53.5432C75.1157 52.5032 76.4757 51.4632 77.7557 50.4232C79.5157 48.9832 81.1957 47.3832 82.7157 45.7832C82.5557 45.7032 79.2757 43.0632 78.3957 41.3032C77.6757 39.7832 77.1157 37.7032 77.9157 36.1031C78.7157 34.5831 80.6357 33.7831 82.1557 34.7431C84.3158 36.1031 84.4757 40.5831 83.9157 42.7432C83.9157 42.9032 83.2757 44.5832 82.9557 45.3032C83.0357 45.3832 83.0357 45.3032 83.1157 45.3832C84.7157 43.6232 86.0758 41.7831 87.1958 39.9431C87.8358 38.9031 88.4758 37.8632 88.9558 36.8232C88.3158 36.4231 85.2757 34.4231 84.3157 32.9031C83.4357 31.4631 82.6358 29.4631 83.2758 27.7831C83.8358 26.1831 85.6758 25.2231 87.2758 26.0231C89.5158 27.1431 90.2358 31.5431 89.9158 33.7831C89.9158 33.9431 89.5958 35.1432 89.3558 36.0232C89.5958 35.5432 89.8358 35.0631 90.0758 34.5831C90.8758 32.9031 91.5158 31.2231 92.1558 29.8631C92.4758 29.0631 92.7158 28.2631 92.9558 27.6231C92.5558 26.8231 90.7958 23.7831 90.6358 22.0231C90.4758 20.3431 90.7158 18.1831 92.0758 16.9831C93.3558 15.7831 95.4358 15.7831 96.4758 17.2231C97.9958 19.2231 96.5558 23.5431 95.2758 25.3831C95.1958 25.5431 93.1158 27.7831 93.1158 27.7831C93.1158 27.7831 93.1158 27.7831 93.1158 27.7031C92.8758 28.3431 92.6358 29.1431 92.3958 29.8631C91.8358 31.3031 91.2758 32.9831 90.4758 34.6631C89.6758 36.4231 88.7958 38.2631 87.6758 40.1032C86.5558 42.0232 85.2758 43.9432 83.6758 45.7032C83.6758 45.7032 83.6758 45.7032 83.5958 45.7832C84.2358 45.3832 85.9958 44.3432 86.1558 44.3432C88.2358 43.4632 92.7158 42.9832 94.3958 44.8232C95.5958 46.1832 95.1158 48.1832 93.7558 49.2232C92.3158 50.2632 90.1558 50.0232 88.5558 49.5432C86.7958 48.9832 83.7557 46.2632 83.5157 46.0232C81.9957 47.7032 80.3158 49.3832 78.4757 50.9032C77.4357 51.7832 76.3957 52.6632 75.2757 53.5432C75.8357 53.2232 76.3157 52.9832 76.3957 52.9032C78.4757 52.0232 82.9558 51.5432 84.6358 53.3832C85.8358 54.7432 85.3558 56.7432 83.9958 57.7832C82.5558 58.8232 80.3957 58.5832 78.7957 58.1032C77.1957 57.6232 74.5557 55.3032 73.8357 54.6632C73.4357 54.9832 73.0357 55.3032 72.5557 55.6232C70.5557 57.1432 68.5557 58.6632 66.6357 60.2632C65.9157 60.8232 65.2757 61.3832 64.6357 61.9432C65.1157 61.7032 65.5157 61.4632 65.5957 61.3832C67.6757 60.5032 72.1557 60.0232 73.8357 61.8632C75.0357 63.2232 74.5557 65.2232 73.1957 66.2632C71.7557 67.3032 69.5957 67.0632 67.9957 66.5832C66.4757 66.1032 63.9957 64.0232 63.1957 63.3032C62.5557 63.8632 61.9157 64.5032 61.2757 65.1432C60.8757 65.5432 60.4757 65.9432 60.0757 66.4232C59.6757 66.8232 59.2757 67.3032 58.9557 67.7032C58.2357 68.5832 57.5157 69.4632 56.8757 70.2632C56.3957 70.8232 55.9957 71.3832 55.5157 72.0232C56.1557 71.4632 57.5157 70.4232 57.6757 70.3432C59.5957 69.1432 63.9157 68.0232 65.8357 69.6232C67.1957 70.8232 67.1157 72.8232 65.8357 74.0232C64.5557 75.2232 62.3957 75.3832 60.7157 75.1432C58.8757 74.8232 55.5957 72.7432 55.1957 72.4232C54.4757 73.3832 53.7557 74.2632 53.1157 75.1432C50.8757 78.1832 49.1957 80.8232 47.9957 82.7432C47.9157 82.8232 47.9157 82.9032 47.9157 82.9032L46.3957 82.1832C46.4757 82.1032 46.5557 81.9432 46.6357 81.7832C47.8357 79.9432 49.6757 77.3032 51.9957 74.2632C52.7157 73.3032 53.5157 72.2632 54.3157 71.2232C54.0757 70.9832 52.8757 69.6232 51.9157 68.2632C50.1557 68.9832 46.4757 68.9832 45.9957 68.9832C45.9157 70.1832 45.8357 71.3032 45.8357 72.4232C45.6757 76.1832 45.6757 79.3832 45.7557 81.5432C45.7557 81.6232 45.7557 81.7032 45.7557 81.7832L44.0757 80.9832C44.0757 78.8232 44.1557 75.8632 44.3957 72.3432C44.4757 71.1432 44.5557 69.8632 44.7157 68.5032C44.2357 68.4232 40.3957 67.3832 38.9557 66.2632C37.6757 65.2232 36.2357 63.5432 36.3157 61.7832C36.3957 60.0232 37.7557 58.5832 39.5957 58.8232C42.0757 59.1432 44.1557 63.1432 44.5557 65.3832C44.5557 65.5432 44.7157 66.9832 44.7157 67.8632C44.7957 67.3032 44.7957 66.8232 44.8757 66.2632C44.9557 65.1432 45.1157 64.1032 45.2757 62.9032C45.3557 62.3432 45.4357 61.7832 45.5157 61.2232C45.5957 60.6632 45.7557 60.0232 45.8357 59.4632C46.1557 58.1032 46.4757 56.7432 46.8757 55.3832C45.9157 55.3032 42.4757 54.9032 41.0357 54.0232C39.5957 53.2232 37.9957 51.7032 37.7557 49.9432C37.5157 48.1832 38.7157 46.5832 40.5557 46.5032C43.0357 46.4232 45.7557 50.1032 46.4757 52.1832C46.5557 52.3432 46.8757 53.8632 47.0357 54.7432C47.2757 53.9432 47.5157 53.0632 47.8357 52.2632C48.6357 49.8632 49.5157 47.5432 50.3957 45.1432C50.6357 44.4232 50.9557 43.7032 51.1957 42.9832C50.8757 42.9832 46.7957 42.5832 45.1957 41.6232C43.7557 40.8232 42.1557 39.3031 41.9157 37.5431C41.6757 35.7831 42.8757 34.1831 44.7157 34.1031C47.1957 34.0231 49.9157 37.7031 50.6357 39.7831C50.7157 39.9431 51.1957 42.1832 51.2757 42.8232C51.8357 41.2232 52.3957 39.6232 52.8757 38.0232C53.5157 35.7831 54.0757 33.6231 54.4757 31.4631C54.3157 31.4631 50.0757 31.0631 48.3957 30.1031C46.9557 29.3031 45.3557 27.7831 45.1157 26.0231C44.8757 24.2631 46.0757 22.6631 47.9157 22.5831C50.3957 22.5031 53.1157 26.1831 53.8357 28.2631C53.9157 28.4231 54.3157 30.1031 54.4757 30.9831C54.5557 30.9831 54.5557 30.9831 54.6357 30.9831C55.0357 28.6631 55.0357 26.3431 55.0357 24.1831C55.0357 22.9031 54.8757 21.7031 54.7957 20.5831C53.9957 20.5831 50.3957 20.5831 48.7957 19.8631C47.2757 19.2231 45.5157 17.9431 45.1157 16.1831C44.7157 14.5031 45.6757 12.7431 47.5157 12.4231C49.9957 12.1031 53.0357 15.4631 53.9957 17.4631C54.0757 17.5431 54.4757 18.7431 54.7157 19.6231C54.6357 19.0631 54.6357 18.5831 54.5557 18.0231C54.3157 16.1831 53.9157 14.4231 53.5957 12.9031C53.4357 12.0231 53.1957 11.3031 53.0357 10.5831C52.2357 10.1831 49.1157 8.50313 47.9957 7.22313C46.9557 5.94313 45.9957 3.94312 46.3957 2.26312C46.3157 0.663121 47.9957 -0.456879 49.7557 0.183122Z" fill="#67A948"/>
<path d="M95.0472 38.8226C93.0472 38.7426 89.1272 36.7426 89.1272 36.7426C89.0472 36.7426 91.2072 34.5826 91.3672 34.4226C93.1272 33.0626 97.2872 31.3826 99.4472 32.7426C100.967 33.7026 101.047 35.7826 99.9272 37.1426C98.8872 38.5026 96.7272 38.9026 95.0472 38.8226Z" fill="#67A948"/>
<g opacity="0.5">
<path opacity="0.5" d="M54.5245 20.2636C54.4445 20.2636 55.0845 17.3036 55.1645 17.0636C55.8845 14.9036 58.4445 11.2236 60.9245 11.2236C62.7645 11.2236 63.9645 12.9036 63.8045 14.5836C63.6445 16.3436 62.0445 17.8636 60.6045 18.7436C58.9245 19.7836 54.5245 20.2636 54.5245 20.2636Z" fill="white"/>
<path opacity="0.5" d="M49.7557 0.183122C52.1557 1.06312 53.2757 5.38313 53.1957 7.62313C53.1957 7.78313 52.7157 10.8231 52.7157 10.8231C52.7157 10.8231 52.7157 10.8231 52.6357 10.8231C52.7957 11.5431 53.0357 12.2631 53.1957 13.0631C53.5157 14.5831 53.9157 16.2631 54.2357 18.1831C54.5557 20.0231 54.7957 22.1031 54.8757 24.2631C54.9557 26.4231 54.9557 28.7431 54.6357 31.1431V31.2231C54.9557 30.5831 55.8357 28.7431 55.9957 28.5831C57.1957 26.7431 60.7157 23.7831 63.1157 24.5031C64.8757 24.9831 65.5957 26.9031 64.9557 28.5031C64.3157 30.1831 62.3957 31.2231 60.7957 31.6231C58.9557 32.1031 54.9557 31.5431 54.6357 31.4631C54.3157 33.7031 53.7557 36.0231 53.1157 38.3431C52.7157 39.6231 52.3157 40.9832 51.9157 42.2632C52.2357 41.7032 52.4757 41.2231 52.4757 41.1432C53.6757 39.3031 57.1957 36.3431 59.5957 37.0631C61.3557 37.5431 62.0757 39.4632 61.4357 41.0632C60.7957 42.7432 58.8757 43.7832 57.2757 44.1832C55.6757 44.6632 52.1557 44.1832 51.2757 44.1032C51.1157 44.5832 50.9557 45.1432 50.7957 45.6232C49.9957 48.0232 49.1157 50.4232 48.3957 52.7432C48.1557 53.5432 47.9157 54.4232 47.6757 55.2232C47.9157 54.7432 48.1557 54.2632 48.1557 54.2632C49.3557 52.4232 52.8757 49.4632 55.2757 50.1832C57.0357 50.6632 57.7557 52.5832 57.1157 54.1832C56.4757 55.8632 54.5557 56.9032 52.9557 57.3032C51.4357 57.7832 48.2357 57.3832 47.1157 57.2232C46.8757 58.1032 46.7157 58.9032 46.5557 59.7832C46.4757 60.3432 46.3157 60.9032 46.2357 61.4632C46.1557 62.0232 46.0757 62.5832 45.9957 63.1432C45.9157 64.2632 45.7557 65.3832 45.6757 66.4232C45.5957 67.1432 45.5957 67.8632 45.5157 68.5832C45.7557 67.7832 46.3157 66.1032 46.3957 66.0232C47.0357 64.6632 48.5557 62.7432 50.2357 61.6232C50.3157 61.3832 50.3957 61.2232 50.5557 61.0632C51.5157 59.6232 53.5157 59.2232 54.9557 60.3432C56.8757 61.9432 56.3957 66.5032 55.5157 68.5832C55.4357 68.7432 54.7957 69.9432 54.3157 70.7432C54.6357 70.3432 54.9557 69.9432 55.3557 69.4632C56.0757 68.5832 56.7957 67.7832 57.5157 66.9032C57.9157 66.5032 58.3157 66.0232 58.7157 65.6232C59.1157 65.2232 59.5957 64.7432 59.9957 64.3432C61.0357 63.3832 62.0757 62.4232 63.1957 61.5432C62.4757 60.9032 59.8357 58.7432 59.1157 57.2232C58.3957 55.7032 57.8357 53.6232 58.6357 52.0232C59.4357 50.5032 61.3557 49.7032 62.8757 50.6632C65.0357 52.0232 65.1957 56.5032 64.6357 58.6632C64.6357 58.8232 63.9957 60.3432 63.6757 61.1432C64.3157 60.5832 64.9557 60.0232 65.6757 59.5432C67.6757 58.0232 69.6757 56.5032 71.7557 55.0632C72.3957 54.5832 73.0357 54.1032 73.5957 53.7032C73.3557 53.4632 70.1557 50.9032 69.3557 49.2232C68.6357 47.7032 68.0757 45.6232 68.8757 44.0232C69.6757 42.5032 71.5957 41.7032 73.1157 42.6632C75.2757 44.0232 75.4357 48.5032 74.8757 50.6632C74.7957 50.8232 73.9957 52.9832 73.7557 53.5432C75.1157 52.5032 76.4757 51.4632 77.7557 50.4232C79.5157 48.9832 81.1957 47.3832 82.7157 45.7832C82.5557 45.7032 79.2757 43.0632 78.3957 41.3032C77.6757 39.7832 77.1157 37.7032 77.9157 36.1031C78.7157 34.5831 80.6357 33.7831 82.1557 34.7431C84.3158 36.1031 84.4757 40.5831 83.9157 42.7432C83.9157 42.9032 83.2757 44.5832 82.9557 45.3032C83.0357 45.3832 83.0357 45.3032 83.1157 45.3832C84.7157 43.6232 86.0758 41.7831 87.1958 39.9431C87.8358 38.9031 88.4758 37.8632 88.9558 36.8232C88.3158 36.4231 85.2757 34.4231 84.3157 32.9031C83.4357 31.4631 82.6358 29.4631 83.2758 27.7831C83.8358 26.1831 85.6758 25.2231 87.2758 26.0231C89.5158 27.1431 90.2358 31.5431 89.9158 33.7831C89.9158 33.9431 89.5958 35.1432 89.3558 36.0232C89.5958 35.5432 89.8358 35.0631 90.0758 34.5831C90.8758 32.9031 91.5158 31.2231 92.1558 29.8631C92.4758 29.0631 92.7158 28.2631 92.9558 27.6231C92.5558 26.8231 90.7958 23.7831 90.6358 22.0231C90.4758 20.3431 90.7158 18.1831 92.0758 16.9831C93.3558 15.7831 95.4358 15.7831 96.4758 17.2231C97.9958 19.2231 96.5558 23.5431 95.2758 25.3831C95.1958 25.5431 93.1158 27.7831 93.1158 27.7831C93.1158 27.7831 93.1158 27.7831 93.1158 27.7031C92.8758 28.3431 92.6358 29.1431 92.3958 29.8631C91.8358 31.3031 91.2758 32.9831 90.4758 34.6631C89.6758 36.4231 88.7958 38.2631 87.6758 40.1032C86.5558 42.0232 85.2758 43.9432 83.6758 45.7032C83.6758 45.7032 83.6758 45.7032 83.5958 45.7832C84.2358 45.3832 85.9958 44.3432 86.1558 44.3432C88.2358 43.4632 92.7158 42.9832 94.3958 44.8232C95.5958 46.1832 95.1158 48.1832 93.7558 49.2232C92.3158 50.2632 90.1558 50.0232 88.5558 49.5432C86.7958 48.9832 83.7557 46.2632 83.5157 46.0232C81.9957 47.7032 80.3158 49.3832 78.4757 50.9032C77.4357 51.7832 76.3957 52.6632 75.2757 53.5432C75.8357 53.2232 76.3157 52.9832 76.3957 52.9032C78.4757 52.0232 82.9558 51.5432 84.6358 53.3832C85.8358 54.7432 85.3558 56.7432 83.9958 57.7832C82.5558 58.8232 80.3957 58.5832 78.7957 58.1032C77.1957 57.6232 74.5557 55.3032 73.8357 54.6632C73.4357 54.9832 73.0357 55.3032 72.5557 55.6232C70.5557 57.1432 68.5557 58.6632 66.6357 60.2632C65.9157 60.8232 65.2757 61.3832 64.6357 61.9432C65.1157 61.7032 65.5157 61.4632 65.5957 61.3832C67.6757 60.5032 72.1557 60.0232 73.8357 61.8632C75.0357 63.2232 74.5557 65.2232 73.1957 66.2632C71.7557 67.3032 69.5957 67.0632 67.9957 66.5832C66.4757 66.1032 63.9957 64.0232 63.1957 63.3032C62.5557 63.8632 61.9157 64.5032 61.2757 65.1432C60.8757 65.5432 60.4757 65.9432 60.0757 66.4232C59.6757 66.8232 59.2757 67.3032 58.9557 67.7032C58.2357 68.5832 57.5157 69.4632 56.8757 70.2632C56.3957 70.8232 55.9957 71.3832 55.5157 72.0232C56.1557 71.4632 57.5157 70.4232 57.6757 70.3432C59.5957 69.1432 63.9157 68.0232 65.8357 69.6232C67.1957 70.8232 67.1157 72.8232 65.8357 74.0232C64.5557 75.2232 62.3957 75.3832 60.7157 75.1432C58.8757 74.8232 55.5957 72.7432 55.1957 72.4232C54.4757 73.3832 53.7557 74.2632 53.1157 75.1432C50.8757 78.1832 49.1957 80.8232 47.9957 82.7432C47.9157 82.8232 47.9157 82.9032 47.9157 82.9032L46.3957 82.1832C46.4757 82.1032 46.5557 81.9432 46.6357 81.7832C47.8357 79.9432 49.6757 77.3032 51.9957 74.2632C52.7157 73.3032 53.5157 72.2632 54.3157 71.2232C54.0757 70.9832 52.8757 69.6232 51.9157 68.2632C50.1557 68.9832 46.4757 68.9832 45.9957 68.9832C45.9157 70.1832 45.8357 71.3032 45.8357 72.4232C45.6757 76.1832 45.6757 79.3832 45.7557 81.5432C45.7557 81.6232 45.7557 81.7032 45.7557 81.7832L44.0757 80.9832C44.0757 78.8232 44.1557 75.8632 44.3957 72.3432C44.4757 71.1432 44.5557 69.8632 44.7157 68.5032C44.2357 68.4232 40.3957 67.3832 38.9557 66.2632C37.6757 65.2232 36.2357 63.5432 36.3157 61.7832C36.3957 60.0232 37.7557 58.5832 39.5957 58.8232C42.0757 59.1432 44.1557 63.1432 44.5557 65.3832C44.5557 65.5432 44.7157 66.9832 44.7157 67.8632C44.7957 67.3032 44.7957 66.8232 44.8757 66.2632C44.9557 65.1432 45.1157 64.1032 45.2757 62.9032C45.3557 62.3432 45.4357 61.7832 45.5157 61.2232C45.5957 60.6632 45.7557 60.0232 45.8357 59.4632C46.1557 58.1032 46.4757 56.7432 46.8757 55.3832C45.9157 55.3032 42.4757 54.9032 41.0357 54.0232C39.5957 53.2232 37.9957 51.7032 37.7557 49.9432C37.5157 48.1832 38.7157 46.5832 40.5557 46.5032C43.0357 46.4232 45.7557 50.1032 46.4757 52.1832C46.5557 52.3432 46.8757 53.8632 47.0357 54.7432C47.2757 53.9432 47.5157 53.0632 47.8357 52.2632C48.6357 49.8632 49.5157 47.5432 50.3957 45.1432C50.6357 44.4232 50.9557 43.7032 51.1957 42.9832C50.8757 42.9832 46.7957 42.5832 45.1957 41.6232C43.7557 40.8232 42.1557 39.3031 41.9157 37.5431C41.6757 35.7831 42.8757 34.1831 44.7157 34.1031C47.1957 34.0231 49.9157 37.7031 50.6357 39.7831C50.7157 39.9431 51.1957 42.1832 51.2757 42.8232C51.8357 41.2232 52.3957 39.6232 52.8757 38.0232C53.5157 35.7831 54.0757 33.6231 54.4757 31.4631C54.3157 31.4631 50.0757 31.0631 48.3957 30.1031C46.9557 29.3031 45.3557 27.7831 45.1157 26.0231C44.8757 24.2631 46.0757 22.6631 47.9157 22.5831C50.3957 22.5031 53.1157 26.1831 53.8357 28.2631C53.9157 28.4231 54.3157 30.1031 54.4757 30.9831C54.5557 30.9831 54.5557 30.9831 54.6357 30.9831C55.0357 28.6631 55.0357 26.3431 55.0357 24.1831C55.0357 22.9031 54.8757 21.7031 54.7957 20.5831C53.9957 20.5831 50.3957 20.5831 48.7957 19.8631C47.2757 19.2231 45.5157 17.9431 45.1157 16.1831C44.7157 14.5031 45.6757 12.7431 47.5157 12.4231C49.9957 12.1031 53.0357 15.4631 53.9957 17.4631C54.0757 17.5431 54.4757 18.7431 54.7157 19.6231C54.6357 19.0631 54.6357 18.5831 54.5557 18.0231C54.3157 16.1831 53.9157 14.4231 53.5957 12.9031C53.4357 12.0231 53.1957 11.3031 53.0357 10.5831C52.2357 10.1831 49.1157 8.50313 47.9957 7.22313C46.9557 5.94313 45.9957 3.94312 46.3957 2.26312C46.3157 0.663121 47.9957 -0.456879 49.7557 0.183122Z" fill="white"/>
<path opacity="0.5" d="M95.0472 38.8226C93.0472 38.7426 89.1272 36.7426 89.1272 36.7426C89.0472 36.7426 91.2072 34.5826 91.3672 34.4226C93.1272 33.0626 97.2872 31.3826 99.4472 32.7426C100.967 33.7026 101.047 35.7826 99.9272 37.1426C98.8872 38.5026 96.7272 38.9026 95.0472 38.8226Z" fill="white"/>
</g>
<path d="M72.1472 87.8624C72.1472 87.8624 60.2272 59.2224 53.5872 60.4224C46.9471 61.6224 65.0272 106.102 65.0272 106.102C65.0272 106.102 44.0671 66.6624 29.8271 66.6624C15.5871 66.6624 35.0271 110.262 53.1072 124.822C53.1072 124.822 24.5471 94.1024 7.90712 100.742C-8.73289 107.462 41.2671 138.582 41.2671 138.582C41.2671 138.582 12.2271 129.462 15.5871 136.502C18.9471 143.542 27.9871 144.822 27.9871 144.822L35.6671 146.502H77.2672L83.6672 144.022C83.6672 144.022 110.307 130.742 103.187 125.302C96.0672 119.862 80.3872 131.542 80.3872 131.542C80.3872 131.542 107.507 101.622 102.307 90.4224C97.1072 79.2224 73.7472 110.822 73.7472 110.822C73.7472 110.822 92.7872 70.5024 88.9472 63.4624C85.0272 56.3424 72.1472 87.8624 72.1472 87.8624Z" fill="#67A948"/>
<path opacity="0.4" d="M72.1472 87.8624C72.1472 87.8624 60.2272 59.2224 53.5872 60.4224C46.9471 61.6224 65.0272 106.102 65.0272 106.102C65.0272 106.102 44.0671 66.6624 29.8271 66.6624C15.5871 66.6624 35.0271 110.262 53.1072 124.822C53.1072 124.822 24.5471 94.1024 7.90712 100.742C-8.73289 107.462 41.2671 138.582 41.2671 138.582C41.2671 138.582 12.2271 129.462 15.5871 136.502C18.9471 143.542 27.9871 144.822 27.9871 144.822L40.4671 146.502H74.0672L83.6672 144.022C83.6672 144.022 110.307 130.742 103.187 125.302C96.0672 119.862 80.3872 131.542 80.3872 131.542C80.3872 131.542 107.507 101.622 102.307 90.4224C97.1072 79.2224 73.7472 110.822 73.7472 110.822C73.7472 110.822 92.7872 70.5024 88.9472 63.4624C85.0272 56.3424 72.1472 87.8624 72.1472 87.8624Z" fill="white"/>
<path d="M75.9751 89.3818C65.4951 120.342 65.4951 142.182 65.4951 142.182C65.4951 142.182 77.8951 142.662 90.6951 133.142" stroke="#263238" stroke-miterlimit="10" stroke-linecap="round" stroke-linejoin="round"/>
<path d="M70.6948 106.023C70.6948 106.023 68.2948 94.5833 62.1348 78.9033" stroke="#263238" stroke-miterlimit="10" stroke-linecap="round" stroke-linejoin="round"/>
<path d="M39.8311 88.0244L66.4711 127.544C66.4711 127.544 84.5511 112.344 90.7111 103.784" stroke="#263238" stroke-miterlimit="10" stroke-linecap="round" stroke-linejoin="round"/>
<path d="M65.9908 136.984C65.9908 136.984 37.9107 123.704 26.4707 116.024" stroke="#263238" stroke-miterlimit="10" stroke-linecap="round" stroke-linejoin="round"/>
<path d="M150.471 23.8623H144.711V264.902H150.471V23.8623Z" fill="#C2C2C2" stroke="#ABABAB" stroke-miterlimit="10" stroke-linecap="round" stroke-linejoin="round"/>
<path d="M46.3694 23.8623H40.6094V264.902H46.3694V23.8623Z" fill="#C2C2C2" stroke="#ABABAB" stroke-miterlimit="10" stroke-linecap="round" stroke-linejoin="round"/>
<path d="M98.4778 23.8623H92.7178V264.902H98.4778V23.8623Z" fill="#C2C2C2" stroke="#ABABAB" stroke-miterlimit="10" stroke-linecap="round" stroke-linejoin="round"/>
<path d="M202.463 23.8623H196.703V264.902H202.463V23.8623Z" fill="#C2C2C2" stroke="#ABABAB" stroke-miterlimit="10" stroke-linecap="round" stroke-linejoin="round"/>
<path d="M200.773 31.3838H38.7734V42.3438H200.773V31.3838Z" fill="#C2C2C2" stroke="#ABABAB" stroke-miterlimit="10" stroke-linecap="round" stroke-linejoin="round"/>
<path d="M200.786 31.3838H96.5459V42.3438H200.786V31.3838Z" fill="#A6A6A6" stroke="#ABABAB" stroke-miterlimit="10" stroke-linecap="round" stroke-linejoin="round"/>
<path d="M200.773 142.021H38.7734V152.981H200.773V142.021Z" fill="#C2C2C2" stroke="#ABABAB" stroke-miterlimit="10" stroke-linecap="round" stroke-linejoin="round"/>
<path d="M200.786 142.021H96.5459V152.981H200.786V142.021Z" fill="#A6A6A6" stroke="#ABABAB" stroke-miterlimit="10" stroke-linecap="round" stroke-linejoin="round"/>
<path d="M200.773 252.583H38.7734V263.543H200.773V252.583Z" fill="#C2C2C2" stroke="#ABABAB" stroke-miterlimit="10" stroke-linecap="round" stroke-linejoin="round"/>
<path d="M200.786 252.583H96.5459V263.543H200.786V252.583Z" fill="#A6A6A6" stroke="#ABABAB" stroke-miterlimit="10" stroke-linecap="round" stroke-linejoin="round"/>
<path d="M96.5422 193.625H11.7422V264.825H96.5422V193.625Z" fill="#67A948"/>
<path opacity="0.6" d="M96.5422 193.625H11.7422V264.825H96.5422V193.625Z" fill="white" stroke="#696969" stroke-miterlimit="10" stroke-linecap="round" stroke-linejoin="round"/>
<path d="M96.5422 193.625H11.7422V264.825H96.5422V193.625Z" stroke="#696969" stroke-miterlimit="10" stroke-linecap="round" stroke-linejoin="round"/>
<path d="M96.5418 193.625H68.3818V264.825H96.5418V193.625Z" fill="#67A948"/>
<path opacity="0.39" d="M96.5418 193.625H68.3818V264.825H96.5418V193.625Z" fill="white" stroke="#696969" stroke-miterlimit="10" stroke-linecap="round" stroke-linejoin="round"/>
<path d="M96.5418 193.625H68.3818V264.825H96.5418V193.625Z" stroke="#696969" stroke-miterlimit="10" stroke-linecap="round" stroke-linejoin="round"/>
<path d="M82.7598 193.783V264.903" stroke="#696969" stroke-miterlimit="10" stroke-linecap="round" stroke-linejoin="round"/>
<path d="M100.878 122.505H16.0781V193.705H100.878V122.505Z" fill="#67A948"/>
<path opacity="0.6" d="M100.878 122.505H16.0781V193.705H100.878V122.505Z" fill="white" stroke="#696969" stroke-miterlimit="10" stroke-linecap="round" stroke-linejoin="round"/>
<path d="M100.878 122.505H16.0781V193.705H100.878V122.505Z" stroke="#696969" stroke-miterlimit="10" stroke-linecap="round" stroke-linejoin="round"/>
<path d="M100.801 122.505H72.6406V193.705H100.801V122.505Z" fill="#67A948"/>
<path opacity="0.39" d="M100.801 122.505H72.6406V193.705H100.801V122.505Z" fill="white" stroke="#696969" stroke-miterlimit="10" stroke-linecap="round" stroke-linejoin="round"/>
<path d="M100.801 122.505H72.6406V193.705H100.801V122.505Z" stroke="#696969" stroke-miterlimit="10" stroke-linecap="round" stroke-linejoin="round"/>
<path d="M87.0537 122.747V193.787" stroke="#696969" stroke-miterlimit="10" stroke-linecap="round" stroke-linejoin="round"/>
<path d="M321.423 193.625H236.623V264.825H321.423V193.625Z" fill="#67A948"/>
<path opacity="0.6" d="M321.423 193.625H236.623V264.825H321.423V193.625Z" fill="white" stroke="#919191" stroke-miterlimit="10" stroke-linecap="round" stroke-linejoin="round"/>
<path d="M321.423 193.625H236.623V264.825H321.423V193.625Z" stroke="#919191" stroke-miterlimit="10" stroke-linecap="round" stroke-linejoin="round"/>
<path d="M321.423 193.625H293.263V264.825H321.423V193.625Z" fill="#67A948"/>
<path opacity="0.39" d="M321.423 193.625H293.263V264.825H321.423V193.625Z" fill="white" stroke="#919191" stroke-miterlimit="10" stroke-linecap="round" stroke-linejoin="round"/>
<path d="M321.423 193.625H293.263V264.825H321.423V193.625Z" stroke="#919191" stroke-miterlimit="10" stroke-linecap="round" stroke-linejoin="round"/>
<path d="M307.599 193.783V264.903" stroke="#919191" stroke-miterlimit="10" stroke-linecap="round" stroke-linejoin="round"/>
<path d="M321.423 122.342H236.623V193.542H321.423V122.342Z" fill="#67A948"/>
<path opacity="0.6" d="M321.423 122.342H236.623V193.542H321.423V122.342Z" fill="white" stroke="#919191" stroke-miterlimit="10" stroke-linecap="round" stroke-linejoin="round"/>
<path d="M321.423 122.342H236.623V193.542H321.423V122.342Z" stroke="#919191" stroke-miterlimit="10" stroke-linecap="round" stroke-linejoin="round"/>
<path d="M321.423 122.342H293.263V193.542H321.423V122.342Z" fill="#67A948"/>
<path opacity="0.39" d="M321.423 122.342H293.263V193.542H321.423V122.342Z" fill="white" stroke="#919191" stroke-miterlimit="10" stroke-linecap="round" stroke-linejoin="round"/>
<path d="M321.423 122.342H293.263V193.542H321.423V122.342Z" stroke="#919191" stroke-miterlimit="10" stroke-linecap="round" stroke-linejoin="round"/>
<path d="M307.599 122.5V193.62" stroke="#919191" stroke-miterlimit="10" stroke-linecap="round" stroke-linejoin="round"/>
<path d="M313.892 63.3838H243.812V122.264H313.892V63.3838Z" fill="#67A948"/>
<path opacity="0.6" d="M313.892 63.3838H243.812V122.264H313.892V63.3838Z" fill="white" stroke="#919191" stroke-miterlimit="10" stroke-linecap="round" stroke-linejoin="round"/>
<path d="M313.892 63.3838H243.812V122.264H313.892V63.3838Z" stroke="#919191" stroke-miterlimit="10" stroke-linecap="round" stroke-linejoin="round"/>
<path d="M313.888 63.3838H290.608V122.264H313.888V63.3838Z" fill="#67A948"/>
<path opacity="0.39" d="M313.888 63.3838H290.608V122.264H313.888V63.3838Z" fill="white" stroke="#919191" stroke-miterlimit="10" stroke-linecap="round" stroke-linejoin="round"/>
<path d="M313.888 63.3838H290.608V122.264H313.888V63.3838Z" stroke="#919191" stroke-miterlimit="10" stroke-linecap="round" stroke-linejoin="round"/>
<path d="M302.56 63.5449V122.345" stroke="#919191" stroke-miterlimit="10" stroke-linecap="round" stroke-linejoin="round"/>
<path d="M304.928 238.1H293.968V244.98H304.928V238.1Z" fill="white" stroke="#263238" stroke-miterlimit="10" stroke-linecap="round" stroke-linejoin="round"/>
<path d="M201.625 264.9C205.293 264.9 208.265 261.927 208.265 258.26C208.265 254.593 205.293 251.62 201.625 251.62C197.958 251.62 194.985 254.593 194.985 258.26C194.985 261.927 197.958 264.9 201.625 264.9Z" fill="#263238" stroke="#263238" stroke-miterlimit="10" stroke-linecap="round" stroke-linejoin="round"/>
<path d="M310.82 148.342H306.9V258.422H310.82V148.342Z" fill="#263238" stroke="#263238" stroke-miterlimit="10" stroke-linecap="round" stroke-linejoin="round"/>
<path d="M308.738 186.901L299.458 179.541C291.378 173.141 287.858 162.581 290.338 152.581C291.058 149.621 293.698 147.541 296.738 147.541H320.738C323.778 147.541 326.418 149.621 327.138 152.581C329.618 162.581 326.018 173.141 318.018 179.541L308.738 186.901ZM296.738 151.301C295.458 151.301 294.258 152.181 293.938 153.461C291.778 162.021 294.898 171.061 301.778 176.581L308.738 182.101L315.698 176.581C322.578 171.061 325.698 162.021 323.538 153.461C323.218 152.181 322.098 151.301 320.738 151.301H296.738Z" fill="#263238"/>
<path d="M285.719 241.462H164.359V255.622H285.719V241.462Z" fill="white"/>
<path opacity="0.28" d="M285.719 241.462H164.359V255.622H285.719V241.462Z" fill="black" stroke="#263238" stroke-miterlimit="10" stroke-linecap="round" stroke-linejoin="round"/>
<path d="M285.719 241.462H164.359V255.622H285.719V241.462Z" stroke="#263238" stroke-miterlimit="10" stroke-linecap="round" stroke-linejoin="round"/>
<path d="M177.959 241.462H164.359V255.622H177.959V241.462Z" stroke="#263238" stroke-miterlimit="10" stroke-linecap="round" stroke-linejoin="round"/>
<path d="M285.809 241.462H272.209V255.622H285.809V241.462Z" stroke="#263238" stroke-miterlimit="10" stroke-linecap="round" stroke-linejoin="round"/>
<path d="M231.904 241.462H218.304V255.622H231.904V241.462Z" stroke="#263238" stroke-miterlimit="10" stroke-linecap="round" stroke-linejoin="round"/>
<path d="M285.804 255.621H294.124L304.604 215.861H296.204L285.804 255.621Z" fill="white" stroke="#263238" stroke-miterlimit="10" stroke-linecap="round" stroke-linejoin="round"/>
<path d="M314.344 232.582H303.384V250.342H314.344V232.582Z" fill="white" stroke="#263238" stroke-miterlimit="10" stroke-linecap="round" stroke-linejoin="round"/>
<path d="M306.175 264.9C304.895 264.9 303.775 263.86 303.775 262.5V253.62C303.775 252.34 304.815 251.22 306.175 251.22C307.455 251.22 308.575 252.26 308.575 253.62V262.58C308.575 263.86 307.535 264.9 306.175 264.9Z" fill="#263238"/>
<path d="M311.797 264.9C310.517 264.9 309.397 263.86 309.397 262.5V253.62C309.397 252.34 310.437 251.22 311.797 251.22C313.077 251.22 314.198 252.26 314.198 253.62V262.58C314.198 263.86 313.157 264.9 311.797 264.9Z" fill="#263238"/>
<path d="M1 264.904H332.04" stroke="#263238" stroke-miterlimit="10" stroke-linecap="round" stroke-linejoin="round"/>
<path d="M115.283 288.025C147.183 288.025 173.043 284.873 173.043 280.985C173.043 277.097 147.183 273.945 115.283 273.945C83.3835 273.945 57.5234 277.097 57.5234 280.985C57.5234 284.873 83.3835 288.025 115.283 288.025Z" fill="#67A948"/>
<path opacity="0.5" d="M115.283 288.025C147.183 288.025 173.043 284.873 173.043 280.985C173.043 277.097 147.183 273.945 115.283 273.945C83.3835 273.945 57.5234 277.097 57.5234 280.985C57.5234 284.873 83.3835 288.025 115.283 288.025Z" fill="white"/>
<path d="M234.889 280.982C234.889 282.902 222.009 284.502 206.089 284.502C190.169 284.502 177.289 282.902 177.289 280.982C177.289 279.062 190.169 277.462 206.089 277.462C222.009 277.462 234.889 279.062 234.889 280.982Z" fill="#67A948"/>
<path opacity="0.5" d="M234.889 280.982C234.889 282.902 222.009 284.502 206.089 284.502C190.169 284.502 177.289 282.902 177.289 280.982C177.289 279.062 190.169 277.462 206.089 277.462C222.009 277.462 234.889 279.062 234.889 280.982Z" fill="white"/>
<path d="M126.794 49.6239C126.794 49.6239 122.314 46.1039 117.194 47.8639C112.074 49.6239 108.154 58.1839 106.794 65.0639C105.434 72.0239 100.074 77.3038 101.354 85.3838C102.634 93.5438 111.914 94.8238 123.034 96.0238C134.234 97.2238 140.234 95.8638 145.514 88.5038C150.794 81.1438 148.554 72.1839 145.434 64.3439C142.314 56.4239 137.114 49.0639 132.794 47.7039C128.634 46.4239 126.794 49.6239 126.794 49.6239Z" fill="#263238" stroke="#263238" stroke-miterlimit="10" stroke-linecap="round" stroke-linejoin="round"/>
<path d="M108.346 91.3828C109.626 91.9428 110.666 92.1828 110.666 92.1828" stroke="white" stroke-miterlimit="10" stroke-linecap="round" stroke-linejoin="round"/>
<path d="M125.673 55.3037C125.673 55.3037 123.353 60.8237 118.793 66.7437C114.233 72.5837 104.073 78.1837 103.433 84.3437C103.193 86.3437 103.913 87.7837 104.873 88.9837" stroke="white" stroke-miterlimit="10" stroke-linecap="round" stroke-linejoin="round"/>
<path d="M144.238 84.8252C143.918 85.5452 143.518 86.2652 142.958 86.9852" stroke="white" stroke-miterlimit="10" stroke-linecap="round" stroke-linejoin="round"/>
<path d="M140.381 69.3027C140.381 69.3027 145.501 75.2227 145.021 81.5427" stroke="white" stroke-miterlimit="10" stroke-linecap="round" stroke-linejoin="round"/>
<path d="M124.706 52.0239C124.706 52.0239 118.466 51.0639 113.906 56.2639C113.746 56.5039 113.586 56.6639 113.426 56.9039" stroke="white" stroke-miterlimit="10" stroke-linecap="round" stroke-linejoin="round"/>
<path d="M95.1723 202.824L94.2123 218.184C94.2123 218.184 89.9723 238.824 88.6123 247.304C87.2523 255.784 84.7723 268.744 84.3723 268.744C83.8923 268.744 76.6123 273.144 74.2123 276.824C71.8923 280.424 74.8523 282.024 78.1323 280.824C81.4123 279.624 85.8123 276.424 87.2523 272.504C88.6923 268.584 89.4123 267.144 89.4923 266.504C89.5723 265.864 105.092 224.344 106.612 219.864C108.132 215.464 111.412 202.424 111.412 202.424L119.012 176.584C119.012 176.584 127.172 203.144 127.252 204.264C127.332 205.464 135.652 273.304 136.052 275.784C136.452 278.344 136.292 280.104 137.892 280.664C139.412 281.224 143.092 281.224 144.932 281.224C146.852 281.224 153.412 282.184 156.692 281.384C159.972 280.584 160.292 280.024 158.052 278.424C155.812 276.824 143.252 275.784 142.052 270.984C141.972 270.584 141.892 200.824 141.892 200.824C141.892 200.824 140.772 177.704 139.012 171.224H97.1723L95.1723 202.824Z" fill="white" stroke="#263238" stroke-miterlimit="10" stroke-linecap="round" stroke-linejoin="round"/>
<path d="M78.0597 280.901C81.3397 279.701 85.7397 276.501 87.1797 272.581C87.2597 272.261 87.4197 272.021 87.4997 271.781C85.6597 273.781 82.6997 276.501 82.6997 276.501C82.6997 276.501 82.4597 274.981 81.4997 273.941C80.6197 272.981 79.4197 273.301 79.4197 273.301L82.6197 269.781C80.2197 271.301 75.8997 274.341 74.2197 276.901C71.8197 280.501 74.7797 282.021 78.0597 280.901Z" fill="#263238" stroke="#263238" stroke-miterlimit="10" stroke-linecap="round" stroke-linejoin="round"/>
<path d="M157.964 278.503C156.444 277.383 150.044 276.583 145.804 274.583C145.644 274.743 145.484 274.903 145.404 275.143C145.004 276.023 144.764 277.463 144.764 277.463L135.964 275.543C135.964 275.623 135.964 275.703 135.964 275.783C136.364 278.343 136.204 280.103 137.804 280.663C139.324 281.223 143.004 281.223 144.844 281.223C146.764 281.223 153.324 282.183 156.604 281.383C159.884 280.663 160.284 280.183 157.964 278.503Z" fill="#263238" stroke="#263238" stroke-miterlimit="10" stroke-linecap="round" stroke-linejoin="round"/>
<path d="M107.348 133.782C107.348 133.782 103.188 135.702 98.1485 144.742C92.6285 154.582 93.5885 160.102 93.5085 171.942C93.4285 183.862 93.1885 203.542 93.1885 203.542C93.1885 203.542 108.388 207.622 119.268 206.982C130.228 206.342 143.988 203.862 143.988 203.862C143.988 203.862 141.028 163.622 138.228 152.102C135.428 140.502 133.748 135.302 133.748 135.302C133.748 135.302 126.708 136.502 117.428 135.542C108.308 134.582 107.348 133.782 107.348 133.782Z" fill="#263238" stroke="#263238" stroke-miterlimit="10" stroke-linecap="round" stroke-linejoin="round"/>
<path d="M124.832 169.383C125.232 170.743 125.632 172.103 125.952 173.543" stroke="white" stroke-miterlimit="10" stroke-linecap="round" stroke-linejoin="round"/>
<path d="M115.182 146.741C115.182 146.741 119.902 155.141 123.422 165.221" stroke="white" stroke-miterlimit="10" stroke-linecap="round" stroke-linejoin="round"/>
<path d="M209.235 126.102C208.755 125.782 200.915 124.582 200.915 124.582L199.395 123.942C199.395 123.942 208.915 124.742 208.995 124.342C209.075 123.942 209.395 123.462 208.755 123.382C208.115 123.302 195.875 120.822 195.875 120.822C195.875 120.822 198.995 117.862 199.395 117.222C199.795 116.582 200.355 115.302 199.715 115.302C199.075 115.302 198.915 115.702 198.035 116.262C197.155 116.822 193.715 118.182 192.755 118.982C191.795 119.782 188.915 121.862 188.915 121.862L155.635 117.302C155.635 117.302 143.955 102.902 141.395 99.8621C138.835 96.8221 135.395 94.4221 135.395 94.4221C132.915 93.3021 133.075 95.1421 133.075 95.1421L138.115 117.862C138.115 117.862 151.315 125.702 152.115 125.702C152.915 125.702 188.675 126.902 188.675 126.902C188.675 126.902 191.075 128.022 192.595 128.982C194.115 129.942 203.715 132.982 203.715 132.982C203.715 132.982 204.355 132.662 203.635 132.102C202.915 131.542 198.275 129.302 198.275 129.302L207.875 131.382C207.875 131.382 208.435 130.982 208.195 130.582C207.955 130.182 199.395 126.902 199.395 126.902L208.995 127.382C208.995 127.302 209.715 126.422 209.235 126.102Z" fill="white" stroke="#263238" stroke-miterlimit="10" stroke-linecap="round" stroke-linejoin="round"/>
<path d="M153.635 114.744C150.195 110.504 143.315 102.024 141.395 99.7038C138.835 96.6638 135.395 94.2639 135.395 94.2639C132.915 93.1439 133.075 94.9839 133.075 94.9839L138.115 117.704C138.115 117.704 144.115 121.224 148.275 123.624L153.635 114.744Z" fill="white" stroke="#263238" stroke-miterlimit="10" stroke-linecap="round" stroke-linejoin="round"/>
<path d="M118.302 92.4226C118.302 92.4226 111.342 92.7426 107.102 97.4626C102.862 102.183 103.342 112.583 105.102 118.743C106.862 124.983 109.102 128.423 108.622 130.583C108.142 132.743 106.382 133.463 107.342 135.463C108.302 137.463 113.822 139.623 123.582 139.303C133.342 138.983 135.182 136.903 135.262 135.063C135.342 133.223 134.622 131.703 134.862 130.583C135.102 129.463 142.142 123.223 142.142 116.343C142.142 109.463 139.102 107.063 138.382 102.103C137.662 97.1426 137.902 96.4226 134.942 94.2626C131.982 92.1826 122.222 91.0626 118.302 92.4226Z" fill="white" stroke="#263238" stroke-miterlimit="10" stroke-linecap="round" stroke-linejoin="round"/>
<path d="M115.168 116.183C115.168 116.183 111.328 119.463 107.488 120.983" stroke="#263238" stroke-miterlimit="10" stroke-linecap="round" stroke-linejoin="round"/>
<path d="M115.908 116.983C115.908 116.983 114.148 122.503 109.988 125.623" stroke="#263238" stroke-miterlimit="10" stroke-linecap="round" stroke-linejoin="round"/>
<path d="M133.171 97.3867L133.971 105.067L130.611 101.147L133.171 97.3867Z" fill="white" stroke="#263238" stroke-miterlimit="10" stroke-linecap="round" stroke-linejoin="round"/>
<path d="M128.66 105.705L133.14 97.3854L129.06 93.0654L128.66 105.705Z" fill="white" stroke="#263238" stroke-miterlimit="10" stroke-linecap="round" stroke-linejoin="round"/>
<path d="M120.027 78.8242C120.027 78.8242 121.227 83.3842 121.067 87.3042C120.907 91.2242 120.507 92.8242 120.507 92.8242L128.667 105.784L130.987 93.7842L132.507 85.4642C132.507 85.4642 123.227 84.9042 120.027 78.8242Z" fill="white" stroke="#263238" stroke-miterlimit="10" stroke-linecap="round" stroke-linejoin="round"/>
<path d="M128.195 98.7461L128.675 105.706L126.275 101.946L128.195 98.7461Z" fill="white" stroke="#263238" stroke-miterlimit="10" stroke-linecap="round" stroke-linejoin="round"/>
<path d="M117.8 92.5053L125.24 105.785L128.2 98.7453L120.28 87.9453L117.8 92.5053Z" fill="white" stroke="#263238" stroke-miterlimit="10" stroke-linecap="round" stroke-linejoin="round"/>
<path d="M247.894 98.6621H180.534V153.942H247.894V98.6621Z" fill="#67A948"/>
<path opacity="0.2" d="M247.894 98.6621H180.534V153.942H247.894V98.6621Z" fill="black"/>
<path d="M247.894 98.6621H180.534V153.942H247.894V98.6621Z" stroke="#263238" stroke-miterlimit="10" stroke-linecap="round" stroke-linejoin="round"/>
<path d="M233.597 98.6621H166.237V153.942H233.597V98.6621Z" fill="#67A948" stroke="#263238" stroke-miterlimit="10" stroke-linecap="round" stroke-linejoin="round"/>
<path d="M258.94 172.58C256.78 169.14 247.82 153.94 247.82 153.94H233.58L240.94 172.58H258.94Z" fill="#67A948"/>
<path opacity="0.2" d="M258.94 172.58C256.78 169.14 247.82 153.94 247.82 153.94H233.58L240.94 172.58H258.94Z" fill="black"/>
<path d="M258.94 172.58C256.78 169.14 247.82 153.94 247.82 153.94H233.58L240.94 172.58H258.94Z" stroke="#263238" stroke-miterlimit="10" stroke-linecap="round" stroke-linejoin="round"/>
<path d="M155.104 172.58C157.264 169.14 166.224 153.94 166.224 153.94H180.464L173.104 172.58H155.104Z" fill="#67A948" stroke="#263238" stroke-miterlimit="10" stroke-linecap="round" stroke-linejoin="round"/>
<path d="M166.225 153.94L159.985 172.58H230.385L233.665 153.94H166.225Z" fill="#67A948" stroke="#263238" stroke-miterlimit="10" stroke-linecap="round" stroke-linejoin="round"/>
<path d="M256.549 118.662V137.222" stroke="#263238" stroke-miterlimit="10" stroke-linecap="round" stroke-linejoin="round"/>
<path d="M260.027 126.662V141.702" stroke="#263238" stroke-miterlimit="10" stroke-linecap="round" stroke-linejoin="round"/>
<path d="M159.011 137.22V148.74" stroke="#263238" stroke-miterlimit="10" stroke-linecap="round" stroke-linejoin="round"/>
<path d="M155.965 143.704V152.744" stroke="#263238" stroke-miterlimit="10" stroke-linecap="round" stroke-linejoin="round"/>
<path d="M106.705 112.263C106.705 112.263 110.145 116.343 114.945 119.223C119.745 122.103 137.345 132.103 138.705 132.663C140.065 133.223 182.145 126.343 182.145 126.343C182.145 126.343 184.545 127.463 186.065 128.423C187.585 129.383 197.185 132.423 197.185 132.423C197.185 132.423 197.825 132.103 197.105 131.543C196.385 130.983 191.745 128.743 191.745 128.743L201.345 130.823C201.345 130.823 201.905 130.423 201.665 130.023C201.425 129.623 192.865 126.343 192.865 126.343L202.465 126.823C202.465 126.823 203.185 125.943 202.705 125.623C202.225 125.303 192.385 123.063 192.385 123.063C192.385 123.063 202.865 122.183 202.945 121.783C203.025 121.383 203.345 120.903 202.705 120.823C202.065 120.743 188.945 119.463 188.945 119.463C188.945 119.463 192.385 117.303 192.785 116.663C193.185 116.023 193.745 114.743 193.105 114.743C192.465 114.743 192.305 115.143 191.425 115.703C190.545 116.263 187.105 117.623 186.145 118.423C185.185 119.223 182.305 121.303 182.305 121.303L143.825 121.383L119.985 102.583" fill="white"/>
<path d="M106.705 112.263C106.705 112.263 110.145 116.343 114.945 119.223C119.745 122.103 137.345 132.103 138.705 132.663C140.065 133.223 182.145 126.343 182.145 126.343C182.145 126.343 184.545 127.463 186.065 128.423C187.585 129.383 197.185 132.423 197.185 132.423C197.185 132.423 197.825 132.103 197.105 131.543C196.385 130.983 191.745 128.743 191.745 128.743L201.345 130.823C201.345 130.823 201.905 130.423 201.665 130.023C201.425 129.623 192.865 126.343 192.865 126.343L202.465 126.823C202.465 126.823 203.185 125.943 202.705 125.623C202.225 125.303 192.385 123.063 192.385 123.063C192.385 123.063 202.865 122.183 202.945 121.783C203.025 121.383 203.345 120.903 202.705 120.823C202.065 120.743 188.945 119.463 188.945 119.463C188.945 119.463 192.385 117.303 192.785 116.663C193.185 116.023 193.745 114.743 193.105 114.743C192.465 114.743 192.305 115.143 191.425 115.703C190.545 116.263 187.105 117.623 186.145 118.423C185.185 119.223 182.305 121.303 182.305 121.303L143.825 121.383L119.985 102.583" stroke="#263238" stroke-miterlimit="10" stroke-linecap="round" stroke-linejoin="round"/>
<path d="M202.713 120.821C202.073 120.741 188.953 119.461 188.953 119.461C188.953 119.461 192.393 117.301 192.793 116.661C193.193 116.021 193.753 114.741 193.113 114.741C192.473 114.741 192.313 115.141 191.433 115.701C190.553 116.261 187.113 117.621 186.153 118.421C185.193 119.221 182.313 121.301 182.313 121.301L143.833 121.381L139.513 118.021C137.913 120.821 134.953 126.101 132.953 129.541C135.913 131.221 138.233 132.421 138.633 132.661C139.993 133.221 182.073 126.341 182.073 126.341C182.073 126.341 184.473 127.461 185.993 128.421C187.513 129.381 197.113 132.421 197.113 132.421C197.113 132.421 197.753 132.101 197.033 131.541C196.313 130.981 191.673 128.741 191.673 128.741L201.273 130.821C201.273 130.821 201.833 130.421 201.593 130.021C201.353 129.621 192.793 126.341 192.793 126.341L202.393 126.821C202.393 126.821 203.113 125.941 202.633 125.621C202.153 125.301 192.313 123.061 192.313 123.061C192.313 123.061 202.793 122.181 202.873 121.781C203.033 121.381 203.353 120.901 202.713 120.821Z" fill="white" stroke="#263238" stroke-miterlimit="10" stroke-linecap="round" stroke-linejoin="round"/>
<path d="M138.215 72.1029C138.215 71.8629 139.815 71.0629 140.215 72.583C140.615 74.103 139.815 76.663 138.935 77.543C138.055 78.4231 137.255 78.6631 137.255 77.543C137.255 76.423 138.215 72.1029 138.215 72.1029Z" fill="white" stroke="#263238" stroke-miterlimit="10" stroke-linecap="round" stroke-linejoin="round"/>
<path d="M128.464 58.1035C128.464 58.1035 128.304 64.0235 123.744 68.4235C119.184 72.8235 115.104 74.8235 115.104 74.8235C115.104 74.8235 115.584 77.3035 116.544 78.1035C117.504 78.9035 119.344 78.7435 119.344 78.7435C119.344 78.7435 120.784 83.1435 124.544 86.5835C128.304 90.0235 132.704 89.7035 135.184 84.5835C137.664 79.3835 138.944 74.2635 138.624 71.3035C138.304 68.3435 138.304 68.3435 138.304 68.3435C138.304 68.3435 130.144 63.7835 128.464 58.1035Z" fill="white" stroke="#263238" stroke-miterlimit="10" stroke-linecap="round" stroke-linejoin="round"/>
<path d="M127.975 73.6225C128.373 73.6225 128.695 73.0494 128.695 72.3425C128.695 71.6356 128.373 71.0625 127.975 71.0625C127.577 71.0625 127.255 71.6356 127.255 72.3425C127.255 73.0494 127.577 73.6225 127.975 73.6225Z" fill="#263238"/>
<path d="M131.88 83.7836C132.278 83.7836 132.6 83.2105 132.6 82.5036C132.6 81.7967 132.278 81.2236 131.88 81.2236C131.483 81.2236 131.16 81.7967 131.16 82.5036C131.16 83.2105 131.483 83.7836 131.88 83.7836Z" fill="#263238"/>
<path d="M134.849 73.6225C135.247 73.6225 135.569 73.0494 135.569 72.3425C135.569 71.6356 135.247 71.0625 134.849 71.0625C134.451 71.0625 134.129 71.6356 134.129 72.3425C134.129 73.0494 134.451 73.6225 134.849 73.6225Z" fill="#263238"/>
<path d="M133.486 70.9844C133.486 70.9844 133.006 72.5844 133.246 73.9444C133.486 75.3044 134.606 77.6244 133.646 78.0244C132.686 78.4244 131.406 78.2644 130.926 77.7044" stroke="#263238" stroke-miterlimit="10" stroke-linecap="round" stroke-linejoin="round"/>
<path d="M125.888 70.0235C125.888 70.0235 126.288 67.5435 129.488 67.8635" stroke="#263238" stroke-miterlimit="10" stroke-linecap="round" stroke-linejoin="round"/>
<path d="M134.443 68.584C134.443 68.584 137.403 66.184 138.443 70.584" stroke="#263238" stroke-miterlimit="10" stroke-linecap="round" stroke-linejoin="round"/>
</svg>
