<svg width="108" height="101" viewBox="0 0 108 101" fill="none" xmlns="http://www.w3.org/2000/svg">
<path d="M83.7024 16.7976C84.6153 15.8847 84.6188 14.4001 83.6643 13.5309C75.4743 6.07261 65.0188 1.52943 53.932 0.654849C42.0669 -0.281135 30.257 3.04612 20.6255 10.0384C10.994 17.0308 4.1727 27.2295 1.3879 38.8011C-1.39691 50.3728 0.0374608 62.5583 5.43313 73.167C10.8288 83.7757 19.8318 92.1118 30.8237 96.6765C41.8156 101.241 54.0753 101.735 65.3988 98.0697C76.7223 94.4042 86.3669 86.8195 92.5986 76.6793C98.4215 67.2044 100.908 56.0789 99.704 45.0674C99.5637 43.7841 98.3619 42.9126 97.0864 43.1126C95.811 43.3127 94.9457 44.5088 95.0798 45.7928C96.1149 55.7037 93.8556 65.7048 88.6155 74.2315C82.9665 83.4235 74.2237 90.299 63.959 93.6218C53.6942 96.9446 42.5809 96.4968 32.6168 92.3588C22.6527 88.2209 14.4914 80.6643 9.60028 71.0476C4.70913 61.4308 3.40888 50.3847 5.93329 39.895C8.4577 29.4054 14.6412 20.1602 23.3721 13.8217C32.103 7.48321 42.8087 4.46707 53.5644 5.31554C63.5415 6.10258 72.9547 10.1671 80.3545 16.8407C81.3133 17.7054 82.7895 17.7105 83.7024 16.7976Z" fill="#303D94"/>
<path d="M99.9996 18.4219L51.1196 67.5548L28.9014 45.2217" stroke="#303D94" stroke-width="15" stroke-linecap="round" stroke-linejoin="round"/>
</svg>
